<?xml version="1.0" standalone="no"?>
<!DOCTYPE svg PUBLIC "-//W3C//DTD SVG 20010904//EN"
 "http://www.w3.org/TR/2001/REC-SVG-20010904/DTD/svg10.dtd">
<svg version="1.0" xmlns="http://www.w3.org/2000/svg"
 width="300.000000pt" height="300.000000pt" viewBox="0 0 300.000000 300.000000"
 preserveAspectRatio="xMidYMid meet">
<metadata>
Created by potrace 1.14, written by Peter Selinger 2001-2017
</metadata>
<g transform="translate(0.000000,300.000000) scale(0.100000,-0.100000)"
fill="#000000" stroke="none">
<path d="M1533 2863 c3 -66 8 -127 13 -134 4 -7 8 -25 9 -39 1 -14 7 -35 13
-47 9 -17 9 -23 -1 -26 -7 -4 -6 -6 4 -6 9 -1 20 -8 23 -17 3 -8 2 -12 -4 -9
-5 3 -8 -4 -7 -15 1 -11 8 -20 15 -20 9 0 12 -6 8 -16 -3 -8 -2 -13 3 -10 10
6 25 -24 16 -32 -3 -3 -5 1 -5 8 0 7 -2 11 -5 8 -9 -9 6 -38 19 -38 7 0 20
-17 30 -37 15 -31 15 -35 2 -24 -9 8 -16 19 -16 27 0 7 -4 16 -10 19 -12 7 -4
-13 28 -73 13 -24 26 -41 30 -38 3 4 0 12 -6 18 -7 7 -12 17 -12 22 0 6 9 0
19 -13 l19 -24 50 37 c33 24 49 42 45 51 -3 8 -10 15 -15 15 -6 0 -5 -7 2 -15
11 -13 10 -14 -4 -9 -10 4 -15 13 -11 22 6 16 -23 55 -35 47 -4 -3 -14 3 -21
12 -12 15 -12 16 4 10 16 -6 16 -3 -4 26 -12 17 -35 46 -52 64 -18 19 -26 36
-22 44 5 7 4 10 -3 5 -6 -3 -13 -2 -17 4 -3 5 -1 10 6 10 7 0 2 12 -12 26 -13
14 -23 26 -21 27 4 2 -6 34 -19 62 -5 11 -11 29 -13 40 -10 45 -39 150 -43
155 -3 3 -3 -50 0 -117z m181 -322 c-5 -6 -33 31 -33 44 -1 6 8 -1 19 -15 10
-14 17 -27 14 -29z m56 -72 c0 -6 -4 -7 -10 -4 -5 3 -10 11 -10 16 0 6 5 7 10
4 6 -3 10 -11 10 -16z"/>
<path d="M1870 2362 c0 -6 5 -14 10 -17 6 -3 10 -11 10 -17 0 -6 -9 -3 -20 7
-19 17 -21 17 -57 -11 -20 -16 -41 -32 -47 -36 -6 -4 -4 -14 7 -26 27 -29 20
-38 -10 -11 -30 28 -23 12 21 -46 32 -43 232 -280 277 -330 70 -77 99 -111 99
-117 0 -5 5 -8 10 -8 7 0 7 7 0 21 -15 27 -4 38 14 13 16 -22 6 -28 109 66 45
41 46 44 30 62 -22 25 -8 36 17 13 11 -10 20 -15 20 -12 0 23 -316 298 -334
291 -14 -5 -62 33 -53 43 3 2 15 -5 27 -17 12 -12 25 -19 28 -15 4 3 1 10 -6
14 -7 4 -44 38 -83 76 -38 37 -69 63 -69 57z m70 -77 c13 -14 19 -25 13 -25
-5 0 -20 11 -33 25 -13 14 -19 25 -13 25 5 0 20 -11 33 -25z m-110 -95 c12
-16 17 -30 11 -30 -5 0 -19 14 -31 30 -12 17 -17 30 -11 30 5 0 19 -13 31 -30z
m240 -25 c13 -14 21 -27 18 -30 -2 -3 -17 9 -33 25 -16 17 -24 30 -19 30 6 0
21 -11 34 -25z m-165 -73 c-7 -7 -55 39 -55 52 0 5 13 -3 30 -19 16 -16 28
-31 25 -33z m254 -17 c-3 -3 -18 6 -32 19 -14 13 -23 27 -19 30 3 4 17 -5 31
-18 14 -14 23 -28 20 -31z m-206 -31 c27 -37 15 -39 -18 -4 -18 19 -24 30 -14
30 8 0 22 -12 32 -26z m267 -9 c7 -8 10 -18 6 -22 -7 -7 -56 36 -56 49 0 11
33 -6 50 -27z m-190 -87 c0 -7 -13 1 -30 17 -16 15 -27 32 -24 37 7 10 54 -37
54 -54z m270 -1 c0 -6 -12 0 -27 14 -16 13 -30 25 -32 26 -1 1 0 6 4 12 7 12
55 -34 55 -52z m-210 -66 c-1 -11 -8 -8 -25 12 -33 37 -32 57 0 27 14 -13 25
-31 25 -39z m59 -70 c-7 -2 -21 6 -31 19 -29 36 -21 46 12 15 19 -19 26 -31
19 -34z"/>
<path d="M1365 2265 c-52 -26 -59 -48 -60 -185 -3 -207 15 -227 205 -225 l120
1 0 -27 c0 -30 -8 -34 -81 -43 -61 -8 -181 -49 -238 -82 -210 -122 -338 -326
-343 -548 -4 -153 30 -266 119 -393 82 -117 199 -203 350 -256 81 -28 99 -31
218 -31 148 0 184 5 275 41 129 52 221 118 299 217 72 90 122 203 137 304 5
40 5 174 -1 197 -2 11 -9 40 -15 65 -18 74 -69 168 -128 239 -66 78 -68 79
-153 136 -90 60 -184 97 -279 110 -82 12 -87 14 -82 43 l4 28 111 -1 c62 -1
123 2 136 7 23 8 23 10 8 25 -14 14 -51 16 -297 16 -347 0 -320 -14 -320 164
0 174 -8 169 248 163 83 -1 96 5 65 32 -25 22 -254 24 -298 3z m413 -570 c116
-15 254 -88 345 -185 110 -116 160 -245 153 -395 -2 -44 -7 -90 -10 -102 -3
-13 -8 -33 -11 -44 -6 -31 -64 -141 -84 -162 -11 -11 -5 9 15 48 71 148 64
341 -18 499 -39 74 -158 195 -225 229 -121 62 -265 83 -392 58 -193 -39 -374
-210 -428 -406 -32 -117 -19 -282 30 -384 28 -59 18 -58 -18 2 -104 178 -100
400 10 572 85 133 250 241 405 265 41 7 82 13 90 14 16 3 66 -1 138 -9z m14
-365 c159 -75 201 -288 84 -426 -129 -153 -373 -118 -458 65 -32 69 -30 170 5
237 31 61 93 117 151 138 58 21 159 15 218 -14z"/>
<path d="M2424 1838 c20 -30 9 -44 -16 -22 -20 19 -8 27 -133 -79 -24 -21 -28
-28 -17 -38 6 -7 12 -20 12 -28 0 -10 -7 -8 -25 9 -38 35 -31 20 31 -69 92
-135 164 -313 164 -409 0 -18 5 -32 10 -32 6 0 10 9 10 20 0 11 5 20 10 20 9
0 14 -15 11 -34 -2 -8 215 0 229 9 4 3 5 16 2 30 -3 18 0 25 12 25 11 0 16 -9
16 -32 0 -22 3 -29 10 -22 13 13 -10 135 -42 229 -41 119 -138 278 -244 397
-39 44 -62 59 -40 26z m66 -78 c17 -24 18 -30 6 -30 -8 0 -24 14 -36 30 -17
24 -18 30 -6 30 8 0 24 -13 36 -30z m70 -108 c-15 -5 -50 36 -49 58 0 9 12 2
31 -19 21 -24 27 -36 18 -39z m-256 -17 c9 -14 14 -30 10 -36 -4 -7 -14 0 -25
17 -10 15 -16 31 -13 36 8 12 10 10 28 -17z m300 -36 c18 -31 17 -47 -3 -34
-6 3 -18 19 -26 36 -22 41 4 40 29 -2z m-244 -51 c6 -10 6 -19 1 -22 -12 -8
-44 42 -35 55 7 11 12 6 34 -33z m295 -46 c8 -17 10 -34 5 -37 -10 -6 -51 61
-42 69 11 12 24 1 37 -32z m-257 -17 c8 -16 8 -26 1 -31 -6 -3 -11 -4 -12 -3
-1 2 -7 14 -14 25 -11 21 -8 34 7 34 4 0 12 -11 18 -25z m299 -117 c-8 -5 -16
5 -24 29 -18 51 -3 66 18 18 13 -30 15 -41 6 -47z m-267 46 c6 -14 10 -27 10
-30 0 -7 -30 -4 -30 4 0 4 -3 17 -6 30 -9 31 14 28 26 -4z m28 -87 c4 -29 -12
-37 -22 -11 -10 26 -7 46 7 42 6 -3 13 -17 15 -31z m267 -23 c11 -62 -17 -59
-30 4 -5 25 -3 32 8 32 9 0 17 -14 22 -36z m-250 -48 c0 -29 -18 -37 -23 -11
-5 21 6 48 16 41 4 -2 8 -16 7 -30z"/>
<path d="M1109 1784 c-30 -20 -67 -49 -82 -65 -15 -16 -32 -29 -37 -29 -5 0
-17 -13 -26 -29 -10 -16 -28 -35 -40 -42 -13 -6 -25 -18 -28 -26 -4 -9 -2 -11
6 -7 7 4 2 -7 -11 -24 -12 -18 -27 -29 -33 -26 -5 3 -9 -2 -7 -12 3 -25 -21
-74 -37 -74 -6 0 -15 -7 -18 -16 -9 -24 -7 -31 5 -14 8 11 9 8 4 -15 -3 -16
-11 -34 -17 -40 -7 -7 -8 -2 -4 15 3 14 -3 7 -13 -15 -24 -49 -26 -65 -6 -39
15 18 15 18 9 -7 -7 -32 0 -37 60 -45 42 -6 46 -5 46 15 0 13 6 21 17 21 13 0
14 3 5 12 -18 18 -15 42 8 68 22 25 27 45 8 34 -8 -5 -9 -2 -5 10 4 10 7 22 7
27 0 5 7 9 16 9 9 0 14 8 13 18 -3 31 1 43 11 37 5 -3 7 0 4 8 -3 8 2 17 10
20 9 4 13 13 10 20 -3 8 2 17 11 21 9 3 14 10 11 15 -3 4 3 16 14 26 11 10 20
23 20 29 0 7 30 44 66 84 36 40 64 72 61 72 -3 0 -29 -16 -58 -36z"/>
<path d="M328 1617 c-20 -5 -55 -24 -77 -44 -69 -58 -70 -68 -68 -614 l2 -476
30 -48 c21 -34 45 -56 77 -73 47 -24 51 -24 315 -24 355 1 320 -2 298 22 -16
18 -34 19 -299 22 -278 3 -281 3 -315 27 -68 49 -67 45 -67 583 1 541 -2 517
74 567 36 24 40 25 280 25 203 1 244 4 252 16 5 8 10 17 10 20 0 9 -475 6
-512 -3z"/>
<path d="M816 1473 c-6 -14 -5 -15 5 -6 7 7 10 15 7 18 -3 3 -9 -2 -12 -12z"/>
<path d="M389 1421 c-20 -21 -28 -37 -25 -53 3 -13 5 -26 5 -30 2 -20 44 -48
71 -48 56 0 95 60 74 115 -7 18 -55 45 -79 45 -9 0 -30 -13 -46 -29z"/>
<path d="M906 1365 c-3 -9 -6 -22 -5 -28 0 -7 5 -1 10 12 5 13 8 26 5 28 -2 2
-6 -3 -10 -12z"/>
<path d="M892 1280 c0 -14 2 -19 5 -12 2 6 2 18 0 25 -3 6 -5 1 -5 -13z"/>
<path d="M720 1199 c0 -5 5 -7 10 -4 6 3 10 8 10 11 0 2 -4 4 -10 4 -5 0 -10
-5 -10 -11z"/>
<path d="M746 1194 c-3 -9 -4 -20 0 -25 3 -5 0 -9 -5 -9 -6 0 -11 6 -12 13 0
6 -4 3 -9 -8 -12 -26 -10 -202 1 -280 5 -33 21 -96 35 -140 27 -85 109 -245
125 -245 5 0 2 11 -6 24 -10 15 -12 26 -6 30 5 4 15 -3 21 -14 6 -11 14 -20
18 -20 4 0 40 24 79 54 62 45 71 56 58 66 -8 7 -12 17 -9 22 3 5 13 3 23 -6
35 -31 31 -15 -8 37 -55 72 -107 186 -134 293 -15 59 -27 89 -35 86 -8 -2 -12
8 -12 30 0 24 3 29 9 18 6 -8 7 -18 5 -22 -3 -4 -1 -8 4 -8 10 0 7 89 -4 98
-4 4 -4 -1 -1 -10 3 -10 2 -20 -3 -23 -6 -4 -10 5 -10 19 0 20 -5 26 -22 27
-13 0 -39 2 -60 5 -26 2 -38 -1 -42 -12z m-9 -94 c-1 -22 -6 -40 -10 -40 -8 0
-7 56 1 73 8 17 11 5 9 -33z m162 -103 c1 -10 -3 -15 -9 -12 -5 3 -10 21 -9
38 0 27 2 29 9 12 5 -11 9 -28 9 -38z m-161 -2 c2 -20 -1 -34 -6 -32 -4 3 -9
22 -10 42 -2 20 1 34 6 32 4 -3 9 -22 10 -42z m180 -62 c6 -18 7 -33 2 -33
-10 0 -30 56 -23 64 8 8 8 8 21 -31z m-170 -37 c2 -20 -1 -36 -6 -36 -4 0 -9
18 -11 41 -1 22 2 38 6 36 5 -3 10 -22 11 -41z m197 -51 c6 -29 6 -29 -9 -11
-9 11 -16 29 -16 40 0 28 17 8 25 -29z m-171 -57 c3 -16 3 -28 -2 -28 -11 0
-32 67 -24 75 7 7 17 -11 26 -47z m204 -3 c14 -31 15 -35 4 -35 -8 0 -32 43
-32 55 0 15 19 1 28 -20z m-174 -82 c10 -19 12 -34 6 -38 -10 -6 -40 55 -33
68 6 10 7 10 27 -30z m225 -22 c-13 -4 -38 28 -38 49 0 9 9 4 24 -15 14 -16
20 -32 14 -34z m-172 -103 c-2 -8 -13 1 -25 21 -12 19 -18 39 -15 44 8 12 46
-49 40 -65z"/>
<path d="M2492 1100 c-4 -3 -7 -11 -7 -19 0 -8 -6 -16 -12 -18 -8 -3 -13 4
-13 16 0 12 -4 21 -10 21 -5 0 -10 -16 -10 -35 0 -116 -67 -293 -156 -406 -24
-31 -41 -59 -37 -63 3 -3 12 2 19 12 9 13 16 14 24 6 8 -8 9 -14 1 -18 -22
-14 -15 -24 129 -156 l34 -32 19 23 c13 16 21 19 29 11 9 -9 7 -17 -7 -32 -10
-11 -16 -23 -13 -25 3 -3 23 16 45 42 102 122 179 280 213 438 12 55 24 177
21 218 -2 25 -17 21 -16 -5 0 -32 -19 -34 -23 -3 -3 19 -9 25 -30 26 -150 4
-194 4 -200 -1z m-12 -91 c0 -29 -13 -39 -25 -18 -10 15 4 61 15 54 6 -3 10
-19 10 -36z m262 -29 c-3 -26 -9 -40 -18 -40 -16 0 -17 5 -8 49 10 46 30 39
26 -9z m-275 -38 c-4 -25 -17 -43 -27 -37 -9 6 -6 37 5 55 9 15 25 2 22 -18z
m259 -59 c-3 -21 -5 -41 -6 -45 0 -4 -7 -5 -16 -1 -22 8 -6 83 17 83 7 0 8
-15 5 -37z m-280 -15 c-3 -13 -6 -26 -6 -30 0 -15 -30 -8 -30 6 0 26 12 46 27
46 11 0 14 -6 9 -22z m-35 -91 c-7 -18 -15 -25 -25 -21 -14 5 -14 9 0 36 19
37 40 25 25 -15z m292 36 c9 -17 -14 -73 -29 -73 -11 0 -14 6 -10 16 3 9 9 27
12 40 6 24 19 31 27 17z m-320 -69 c9 -10 -15 -54 -30 -54 -16 0 -16 2 -1 35
11 25 19 30 31 19z m287 -39 c0 -25 -23 -65 -37 -65 -16 0 -16 0 2 44 15 36
35 48 35 21z m-327 -33 c8 -12 -29 -51 -41 -43 -9 5 -7 13 4 29 16 23 29 28
37 14z m287 -58 c0 -4 -10 -22 -21 -41 -28 -45 -50 -29 -23 16 16 27 44 43 44
25z m-60 -94 c0 -17 -42 -70 -52 -64 -13 8 -10 19 13 48 21 27 39 34 39 16z"/>
<path d="M1120 591 c0 -5 8 -12 17 -15 13 -5 14 -9 3 -19 -10 -9 -13 -9 -17 1
-8 21 -27 14 -74 -27 -24 -22 -55 -48 -69 -59 -25 -20 -25 -20 -6 -41 24 -27
13 -40 -14 -16 -11 10 -23 16 -26 13 -10 -11 139 -149 215 -201 87 -59 177
-101 283 -132 93 -28 183 -42 174 -26 -4 6 -18 11 -32 11 -14 0 -24 6 -24 15
0 11 8 13 30 9 28 -6 30 -4 31 22 1 31 2 46 13 142 7 58 6 62 -13 62 -13 0
-21 6 -21 16 0 11 6 15 20 11 11 -3 20 -1 20 4 0 5 -7 10 -15 10 -8 1 -18 2
-22 3 -5 1 -29 5 -56 10 -113 18 -259 88 -355 170 -56 48 -62 52 -62 37z m68
-60 c24 -21 28 -31 10 -31 -14 0 -48 30 -48 42 0 13 13 9 38 -11z m83 -74
c-11 -11 -63 21 -55 34 3 5 19 2 35 -8 16 -10 25 -21 20 -26z m64 -28 c11 -17
-1 -21 -28 -8 -15 7 -23 17 -20 25 5 15 36 4 48 -17z m60 -21 c25 -11 34 -28
15 -28 -19 0 -59 23 -54 31 7 11 8 11 39 -3z m-359 -44 c22 -23 31 -44 19 -44
-12 0 -64 54 -59 61 8 14 15 11 40 -17z m441 18 c15 -5 20 -11 14 -20 -9 -15
-61 0 -61 18 0 11 13 11 47 2z m91 -30 c2 -8 -7 -12 -27 -12 -20 0 -31 5 -31
14 0 18 52 16 58 -2z m-425 -89 c-4 -11 -9 -11 -22 -1 -40 30 -50 41 -45 49 8
13 72 -33 67 -48z m87 -50 c0 -17 -6 -16 -41 4 -43 26 -38 47 6 26 19 -9 35
-23 35 -30z m87 -36 c7 -5 11 -13 8 -17 -8 -13 -83 23 -78 37 5 12 41 2 70
-20z m90 -32 c13 -4 20 -11 17 -20 -3 -8 -11 -12 -17 -10 -56 20 -67 26 -62
35 4 6 14 9 23 6 10 -2 27 -7 39 -11z m92 -26 c28 -10 43 -29 22 -29 -31 0
-71 15 -71 26 0 17 8 17 49 3z"/>
<path d="M2145 522 c-28 -20 -59 -42 -70 -49 -74 -46 -213 -91 -307 -100 -65
-5 -105 -23 -54 -23 18 0 26 -4 23 -12 -2 -7 -12 -12 -21 -12 -21 2 -25 -20
-23 -136 2 -93 2 -95 26 -95 13 0 26 -6 29 -12 2 -9 -7 -13 -27 -13 -17 0 -31
-5 -31 -11 0 -14 159 -6 235 11 28 7 59 13 69 16 85 17 270 107 359 174 64 49
95 89 41 54 -34 -23 -56 -4 -23 20 l23 16 -25 27 c-119 131 -142 153 -155 142
-22 -18 -38 0 -18 22 28 31 3 22 -51 -19z m35 -21 c0 -6 -10 -17 -22 -25 -29
-21 -51 -3 -22 19 22 16 44 19 44 6z m-85 -69 c-36 -18 -56 -1 -24 22 17 12
26 13 37 4 11 -10 9 -14 -13 -26z m-52 -16 c5 -13 -19 -26 -50 -26 -21 0 -15
16 10 28 30 14 34 14 40 -2z m-73 -31 c0 -8 -3 -15 -7 -15 -5 0 -18 -3 -30 -6
-17 -5 -23 -2 -23 9 0 14 16 23 48 26 6 0 12 -6 12 -14z m-80 -19 c0 -14 -21
-26 -46 -26 -22 0 -16 20 9 30 31 12 37 12 37 -4z m-77 -21 c-1 -6 -9 -12 -18
-13 -22 -5 -47 6 -40 17 7 13 61 9 58 -4z m537 -63 c0 -11 -67 -51 -74 -45
-12 12 -6 21 26 41 30 19 48 21 48 4z m-93 -59 c4 -12 -66 -48 -75 -38 -9 8
49 56 62 52 6 -2 11 -8 13 -14z m-92 -43 c6 -10 -51 -40 -75 -40 -22 0 -8 21
23 34 40 18 44 18 52 6z m-102 -44 c4 -9 -4 -16 -21 -21 -15 -3 -35 -8 -44
-11 -33 -10 -19 23 15 34 44 14 44 14 50 -2z m-106 -33 c5 -15 -67 -27 -80
-14 -11 11 -4 15 38 24 26 6 38 3 42 -10z m-107 -18 c3 -6 -13 -11 -37 -13
-38 -3 -53 5 -38 19 8 9 70 4 75 -6z"/>
</g>
</svg>
