<svg width="795" height="585" viewBox="0 0 795 585" fill="none" xmlns="http://www.w3.org/2000/svg">
<g clip-path="url(#clip0_204_818)">
<path d="M795 0H0V585H795V0Z" fill="#E8E6EF"/>
<path d="M273.363 468.472C244.543 459.027 216.804 446.75 192.778 429.831C88.9921 356.747 111.805 187.455 193.246 105.197C218.784 79.4023 251.872 61.4039 286.618 58.2136C325.506 54.643 366.217 68.1118 395.487 96.9628C422.082 123.178 437.703 159.148 472.297 174.682C512.421 192.701 556.92 185.644 598.975 190.981C681.64 201.474 735.662 281.422 717.403 372.652C696.242 478.383 608.195 501.916 522.851 505.599C473.37 507.735 423.89 502.255 375.172 492.967C342.593 486.757 307.232 479.57 273.363 468.472Z" fill="#E8E6EF"/>
<path d="M177.28 340.892C173.049 344.992 166.751 346.3 161.46 344.176C156.169 342.053 152.103 336.586 151.247 330.444C150.239 323.217 153.026 314.533 148.398 309.302C146.073 306.673 142.376 305.771 140.405 302.81C138.751 300.325 138.715 296.997 138.745 293.913C138.8 288.436 138.855 282.959 138.909 277.482C136.702 274.442 132.247 274.625 129.61 272.034C127.002 269.471 126.437 265.288 125.969 261.468C124.587 250.187 122.653 238.987 120.177 227.936C127.916 230.446 135.576 233.167 142.911 236.869C147.005 238.935 151.284 241.456 153.339 245.877C155.406 250.326 154.744 255.629 154.681 260.628C154.661 262.243 154.719 263.911 155.338 265.375C156.931 269.146 161.317 270.015 164.586 272.089C168.197 274.381 170.715 278.654 171.148 283.227C171.541 287.378 170.319 291.613 171.03 295.712C172.605 304.799 182.469 308.994 186.411 317.159C190.533 325.696 183.865 334.509 177.28 340.892Z" fill="#D4DFFF"/>
<path d="M197.585 422.094C197.451 422.094 197.331 421.987 197.308 421.836C195.756 411.915 190.33 385.093 180.906 354.594C173.989 332.209 165.98 311.052 157.1 291.709C146.002 267.536 133.507 246.147 119.961 228.134C119.861 228.001 119.878 227.806 119.998 227.696C120.117 227.586 120.295 227.604 120.394 227.737C133.969 245.787 146.488 267.218 157.605 291.435C166.497 310.805 174.517 331.991 181.443 354.404C190.878 384.94 196.309 411.795 197.863 421.73C197.89 421.899 197.787 422.06 197.633 422.089C197.617 422.092 197.601 422.094 197.585 422.094Z" fill="#1C056D"/>
<path d="M55.0787 315.275C57.7382 317.636 58.8647 321.445 60.217 324.904C61.5693 328.364 63.6297 331.978 66.9467 332.865C70.5435 333.827 74.3211 331.204 77.9328 332.095C80.8581 332.816 82.9315 335.655 84.477 338.49C86.0225 341.324 87.3663 344.44 89.7537 346.441C93.4594 349.546 98.6049 349.144 103.214 348.441C107.823 347.739 112.84 346.962 116.861 349.548C121.752 352.694 123.576 359.858 128.432 363.07C130.497 364.437 132.936 364.953 135.338 365.15C142.494 365.737 149.809 363.615 155.778 359.22C155.434 352.017 153.164 344.231 149.063 338.615C144.961 332.999 138.8 329.096 132.274 328.713C130.192 328.59 128.086 328.814 126.03 328.436C117.388 326.848 112.896 315.774 104.887 311.853C101.485 310.187 97.529 309.943 93.9796 311.18C90.5063 312.391 87.405 314.958 83.7827 315.383C80.2436 315.798 76.8251 314.104 73.3989 313.041C66.8274 311.002 61.5004 312.719 55.0787 315.275Z" fill="#D4DFFF"/>
<path d="M195.162 419.546C195.036 419.546 194.922 419.453 194.889 419.312C190.775 401.561 181.568 384.552 168.264 370.124C156.832 357.727 142.15 346.993 124.626 338.222C105.771 328.783 84.0193 321.626 56.1739 315.699C56.021 315.667 55.9211 315.503 55.9508 315.335C55.9805 315.166 56.1289 315.057 56.2807 315.088C84.1709 321.025 105.962 328.196 124.859 337.655C142.443 346.458 157.179 357.232 168.659 369.681C182.036 384.188 191.296 401.297 195.435 419.158C195.474 419.324 195.383 419.493 195.232 419.536C195.209 419.543 195.185 419.546 195.162 419.546Z" fill="#1C056D"/>
<path d="M206.242 314.959C202.133 315.834 197.696 314.605 194.449 311.692C191.202 308.779 189.206 304.237 189.142 299.619C189.094 296.11 190.096 292.695 191.189 289.4C191.563 288.273 191.955 287.095 191.82 285.904C191.712 284.959 191.28 284.099 190.809 283.3C189.04 280.298 186.574 277.689 185.641 274.259C183.985 268.17 187.669 261.614 186.514 255.386C186.112 253.216 185.143 251.233 184.451 249.153C182.017 241.829 183.291 233.148 187.697 227.048C193.9 229.795 197.948 237.095 198.009 244.471C198.04 248.149 197.125 252.044 198.542 255.374C199.388 257.364 200.957 258.841 202.426 260.326C204.998 262.927 207.482 265.907 208.392 269.625C209.821 275.467 207.085 281.912 208.859 287.637C210.619 293.318 216.352 296.698 217.91 302.451C218.327 303.992 218.413 305.626 218.295 307.229C218.114 309.694 217.379 312.24 215.697 313.874C213.077 316.419 209.668 314.229 206.242 314.959Z" fill="#D4DFFF"/>
<path d="M208.574 421.076C208.429 421.076 208.306 420.954 208.293 420.791C207.076 405.009 207.41 388.855 207.733 373.234C208.179 351.625 208.641 329.281 204.98 307.744C203.086 296.605 200.06 285.523 197.132 274.806C193.06 259.896 188.849 244.479 187.645 228.719C187.632 228.548 187.747 228.398 187.903 228.384C188.055 228.37 188.194 228.496 188.207 228.667C189.405 244.362 193.608 259.748 197.672 274.627C200.603 285.36 203.635 296.458 205.534 307.629C209.205 329.23 208.743 351.608 208.296 373.249C207.974 388.854 207.64 404.99 208.854 420.739C208.868 420.91 208.753 421.06 208.598 421.075C208.59 421.076 208.582 421.076 208.574 421.076Z" fill="#1C056D"/>
<path d="M177.581 520.456C177.581 520.456 151.553 423.379 155.745 420.809C159.936 418.24 262.682 418.138 262.682 418.138C262.682 418.138 250.9 520.238 247.628 520.456C244.356 520.674 186.245 520.899 177.581 520.456Z" fill="#1B3D9E"/>
<mask id="mask0_204_818" style="mask-type:luminance" maskUnits="userSpaceOnUse" x="155" y="418" width="108" height="103">
<path d="M177.581 520.456C177.581 520.456 151.553 423.379 155.745 420.809C159.936 418.24 262.682 418.138 262.682 418.138C262.682 418.138 250.9 520.238 247.628 520.456C244.356 520.674 186.245 520.899 177.581 520.456Z" fill="white"/>
</mask>
<g mask="url(#mask0_204_818)">
<path d="M202.948 410.629C202.948 410.629 172.889 453.015 174.597 454.146C176.305 455.277 260.743 474.505 260.708 473.374C260.673 472.243 269.295 418.138 269.295 418.138L202.948 410.629Z" fill="#1C056D"/>
</g>
<path d="M449.942 437.08H376.423V506.042H449.942V437.08Z" fill="#1B3D9E"/>
<path d="M474.181 520.711H353.96C350.908 520.711 348.433 517.98 348.433 514.611V512.142C348.433 508.773 350.908 506.042 353.96 506.042H474.181C477.233 506.042 479.707 508.773 479.707 512.142V514.611C479.707 517.98 477.233 520.711 474.181 520.711Z" fill="#1C056D"/>
<path d="M228.461 196.575C228.617 196.232 228.933 196.017 229.28 196.015C244.107 195.905 584.705 193.403 599.793 196.019C605.742 197.05 604.263 447.008 599.793 456.557C596.506 463.58 233.004 457.404 228.781 456.557C223.575 455.512 220.996 212.995 228.461 196.575Z" fill="#6880E4"/>
<path d="M237.425 208.073C237.425 208.073 236.26 421.496 240.922 422.079C245.583 422.663 585.29 424.995 588.204 422.079C591.118 419.164 592.283 206.324 588.204 206.324C584.125 206.324 237.425 208.073 237.425 208.073Z" fill="#D4DFFF"/>
<mask id="mask1_204_818" style="mask-type:luminance" maskUnits="userSpaceOnUse" x="237" y="206" width="354" height="218">
<path d="M237.425 208.073C237.425 208.073 236.26 421.496 240.922 422.079C245.583 422.663 585.29 424.995 588.204 422.079C591.118 419.164 592.283 206.324 588.204 206.324C584.125 206.324 237.425 208.073 237.425 208.073Z" fill="white"/>
</mask>
<g mask="url(#mask1_204_818)">
<path opacity="0.46" d="M460.537 201.482L328.516 427.723H230.93L237.425 208.073L460.537 201.482Z" fill="#6880E4"/>
</g>
<mask id="mask2_204_818" style="mask-type:luminance" maskUnits="userSpaceOnUse" x="237" y="206" width="354" height="218">
<path d="M237.425 208.073C237.425 208.073 236.26 421.496 240.922 422.079C245.583 422.663 585.29 424.995 588.204 422.079C591.118 419.164 592.283 206.324 588.204 206.324C584.125 206.324 237.425 208.073 237.425 208.073Z" fill="white"/>
</mask>
<g mask="url(#mask2_204_818)">
<path opacity="0.46" d="M358.656 429.57L485.545 200.269H541.228L418.977 428.37L358.656 429.57Z" fill="#6880E4"/>
</g>
<mask id="mask3_204_818" style="mask-type:luminance" maskUnits="userSpaceOnUse" x="237" y="206" width="354" height="218">
<path d="M237.425 208.073C237.425 208.073 236.26 421.496 240.922 422.079C245.583 422.663 585.29 424.995 588.204 422.079C591.118 419.164 592.283 206.324 588.204 206.324C584.125 206.324 237.425 208.073 237.425 208.073Z" fill="white"/>
</mask>
<g mask="url(#mask3_204_818)">
<path opacity="0.46" d="M564.777 201.12L441.924 429.767L518.025 428.704L599.751 262.674L598.104 202.562L564.777 201.12Z" fill="#6880E4"/>
</g>
<path d="M416.617 452.67C421.176 450.586 423.341 444.817 421.453 439.784C419.564 434.752 414.337 432.362 409.778 434.447C405.219 436.531 403.054 442.301 404.943 447.333C406.831 452.365 412.058 454.755 416.617 452.67Z" fill="#1B3D9E"/>
<path d="M328.909 300.284C329.348 298.028 330.205 296.313 331.485 295.144C332.762 293.976 334.169 293.371 335.704 293.329C337.238 293.29 338.698 293.794 340.087 294.841C341.474 295.89 342.46 297.502 343.046 299.68C343.118 304.922 343.155 310.103 343.155 315.223C343.155 320.345 343.227 325.485 343.374 330.645C346.588 330.645 349.712 330.605 352.744 330.524C355.775 330.445 358.679 330.403 361.456 330.403C363.429 331.05 364.89 332.078 365.84 333.488C366.788 334.899 367.246 336.372 367.21 337.903C367.172 339.435 366.624 340.847 365.566 342.136C364.506 343.427 362.953 344.314 360.908 344.797C358.059 344.797 355.21 344.818 352.361 344.858C349.511 344.899 346.662 344.879 343.813 344.797C343.958 348.831 344.049 353.204 344.087 357.922C344.123 362.639 344.178 367.014 344.251 371.046C344.104 373.707 343.32 375.684 341.895 376.973C340.47 378.263 338.882 378.908 337.128 378.908C335.375 378.908 333.712 378.243 332.142 376.912C330.57 375.582 329.639 373.628 329.347 371.046C329.274 366.933 329.329 362.599 329.512 358.043C329.693 353.488 329.712 349.152 329.567 345.04C326.425 344.96 323.046 344.779 319.43 344.495C315.814 344.214 312.307 343.63 308.91 342.741C305.512 341.855 302.389 340.606 299.54 338.992C296.691 337.38 294.389 335.242 292.636 332.581C291.028 330.082 290.115 327.38 289.896 324.477C289.677 321.573 289.932 318.591 290.663 315.525C291.393 312.462 292.489 309.357 293.951 306.212C295.411 303.067 297 300.043 298.718 297.14C300.434 294.237 302.151 291.515 303.868 288.975C305.584 286.435 307.101 284.197 308.416 282.262C311.337 277.907 314.334 273.674 317.402 269.561C320.471 265.449 323.539 261.296 326.608 257.102C328.214 255.651 329.877 254.906 331.594 254.864C333.31 254.825 334.789 255.288 336.032 256.256C337.274 257.223 338.132 258.595 338.608 260.368C339.082 262.143 338.954 264.118 338.224 266.295C335.74 269.682 332.817 273.534 329.457 277.846C326.096 282.161 322.79 286.676 319.539 291.394C316.288 296.111 313.329 300.91 310.663 305.788C307.995 310.668 306.115 315.404 305.019 320.001C304.581 321.615 304.745 323.006 305.512 324.174C306.279 325.344 307.411 326.311 308.909 327.077C310.406 327.844 312.142 328.468 314.115 328.952C316.088 329.436 318.041 329.799 319.978 330.04C321.913 330.282 323.704 330.464 325.347 330.585C326.991 330.706 328.252 330.808 329.128 330.887C328.981 325.807 328.909 320.708 328.909 315.586C328.909 310.466 328.909 305.365 328.909 300.284Z" fill="#E8E6EF"/>
<path d="M382.059 356.047C381.109 352.58 380.158 348.245 379.21 343.044C378.259 337.842 377.547 332.218 377.072 326.17C376.597 320.122 376.432 313.913 376.58 307.542C376.725 301.173 377.363 295.084 378.497 289.277C379.629 283.471 381.364 278.191 383.702 273.432C386.04 268.675 389.145 264.925 393.018 262.183C397.839 258.796 402.807 256.376 407.921 254.925C413.034 253.474 418.039 252.91 422.935 253.231C427.828 253.555 432.486 254.704 436.907 256.679C441.327 258.656 445.198 261.336 448.523 264.723C451.847 268.109 454.513 272.183 456.523 276.939C458.532 281.698 459.609 287.021 459.756 292.906C459.828 298.47 460.011 304.418 460.304 310.748C460.595 317.079 460.614 323.429 460.359 329.799C460.101 336.17 459.353 342.318 458.112 348.245C456.869 354.172 454.824 359.515 451.975 364.272C449.564 368.305 446.331 371.571 442.277 374.069C438.222 376.57 433.838 378.324 429.126 379.331C424.414 380.339 419.573 380.601 414.606 380.117C409.637 379.634 404.979 378.405 400.633 376.428C396.286 374.453 392.45 371.771 389.127 368.384C385.802 364.997 383.446 360.885 382.059 356.047ZM400.36 276.093C398.459 277.707 396.761 280.065 395.264 283.169C393.766 286.274 392.908 289.561 392.689 293.027C392.396 297.866 392.104 302.764 391.812 307.724C391.519 312.683 391.41 317.582 391.483 322.42C391.555 327.259 391.922 332.018 392.579 336.693C393.237 341.371 394.442 345.846 396.196 350.12C397.291 352.943 398.916 355.321 401.072 357.256C403.226 359.191 405.637 360.685 408.305 361.732C410.971 362.781 413.801 363.365 416.798 363.486C419.793 363.607 422.716 363.285 425.565 362.518C428.414 361.753 431.099 360.522 433.62 358.829C436.14 357.135 438.277 354.958 440.03 352.297C441.272 350.603 442.277 348.245 443.044 345.221C443.811 342.197 444.376 338.831 444.743 335.121C445.107 331.413 445.326 327.581 445.4 323.63C445.472 319.679 445.472 315.93 445.4 312.38C445.326 308.833 445.253 305.667 445.181 302.885C445.107 300.103 445.071 298.067 445.071 296.776C445.144 292.906 444.578 289.298 443.373 285.95C442.167 282.605 440.505 279.681 438.386 277.181C436.267 274.682 433.765 272.666 430.88 271.133C427.993 269.602 424.888 268.714 421.565 268.472C418.24 268.23 414.771 268.714 411.154 269.923C407.538 271.133 403.939 273.19 400.36 276.093Z" fill="#E8E6EF"/>
<path d="M511.481 300.284C511.919 298.028 512.777 296.313 514.056 295.144C515.334 293.976 516.741 293.371 518.275 293.329C519.81 293.29 521.27 293.794 522.659 294.841C524.046 295.89 525.032 297.502 525.617 299.68C525.69 304.922 525.727 310.103 525.727 315.223C525.727 320.345 525.799 325.485 525.946 330.645C529.16 330.645 532.283 330.605 535.316 330.524C538.347 330.445 541.251 330.403 544.028 330.403C546.001 331.05 547.461 332.078 548.411 333.488C549.36 334.899 549.817 336.372 549.781 337.903C549.744 339.435 549.196 340.847 548.138 342.136C547.077 343.427 545.525 344.314 543.48 344.797C540.631 344.797 537.782 344.818 534.932 344.858C532.083 344.899 529.234 344.879 526.385 344.797C526.53 348.831 526.621 353.204 526.659 357.922C526.694 362.639 526.749 367.014 526.823 371.046C526.676 373.707 525.891 375.684 524.467 376.973C523.042 378.263 521.453 378.908 519.7 378.908C517.947 378.908 516.284 378.243 514.714 376.912C513.142 375.582 512.211 373.628 511.919 371.046C511.845 366.933 511.9 362.599 512.084 358.043C512.265 353.488 512.284 349.152 512.139 345.04C508.997 344.96 505.618 344.779 502.002 344.495C498.385 344.214 494.879 343.63 491.481 342.741C488.084 341.855 484.961 340.606 482.112 338.992C479.263 337.38 476.961 335.242 475.208 332.581C473.6 330.082 472.687 327.38 472.468 324.477C472.249 321.573 472.504 318.591 473.235 315.525C473.965 312.462 475.061 309.357 476.523 306.212C477.983 303.067 479.572 300.043 481.29 297.14C483.006 294.237 484.723 291.515 486.44 288.975C488.156 286.435 489.673 284.197 490.988 282.262C493.909 277.907 496.906 273.674 499.974 269.561C503.043 265.449 506.111 261.296 509.18 257.102C510.786 255.651 512.449 254.906 514.166 254.864C515.882 254.825 517.361 255.288 518.605 256.256C519.846 257.223 520.704 258.595 521.18 260.368C521.654 262.143 521.526 264.118 520.796 266.295C518.312 269.682 515.389 273.534 512.029 277.846C508.668 282.161 505.362 286.676 502.111 291.394C498.86 296.111 495.901 300.91 493.235 305.788C490.567 310.668 488.687 315.404 487.591 320.001C487.153 321.615 487.317 323.006 488.084 324.174C488.851 325.344 489.983 326.311 491.481 327.077C492.978 327.844 494.714 328.468 496.687 328.952C498.659 329.436 500.613 329.799 502.55 330.04C504.484 330.282 506.276 330.464 507.919 330.585C509.563 330.706 510.824 330.808 511.7 330.887C511.553 325.807 511.481 320.708 511.481 315.586C511.481 310.466 511.481 305.365 511.481 300.284Z" fill="#E8E6EF"/>
<path opacity="0.54" d="M307.533 458.218L272.397 349.186L281.319 350.769C281.823 350.858 282.243 351.241 282.418 351.771L317.581 458.321C317.589 458.345 317.573 458.37 317.55 458.37L307.533 458.218Z" fill="#1B3D9E"/>
<path d="M194.576 462.849C196.06 462.559 268.957 348.351 272.397 349.186C275.837 350.022 315.894 484.242 314.406 483.981C312.917 483.72 190.89 463.57 194.576 462.849Z" fill="#EE780C"/>
<path d="M261.063 444.377C260.497 444.938 259.923 445.3 259.339 445.466C258.756 445.632 258.196 445.626 257.662 445.449C257.128 445.274 256.643 444.942 256.21 444.454C255.776 443.966 255.448 443.331 255.224 442.551C255.579 437.752 255.851 432.877 256.041 427.926C256.231 422.975 256.473 418.052 256.766 413.16C257.059 408.268 257.482 403.451 258.035 398.707C258.586 393.964 259.402 389.4 260.48 385.016C260.568 384.661 260.866 384.342 261.374 384.061C261.88 383.779 262.497 383.578 263.224 383.458C263.95 383.338 264.74 383.291 265.596 383.318C266.45 383.344 267.273 383.457 268.066 383.658C268.857 383.859 269.561 384.158 270.176 384.553C270.791 384.949 271.239 385.461 271.523 386.087C271.982 386.785 272.257 387.987 272.348 389.692C272.438 391.397 272.403 393.451 272.245 395.853C272.085 398.256 271.795 400.924 271.373 403.857C270.951 406.79 270.452 409.803 269.876 412.894C269.3 415.986 268.667 419.089 267.977 422.201C267.286 425.314 266.555 428.255 265.784 431.024C265.012 433.793 264.239 436.314 263.464 438.588C262.689 440.862 261.939 442.698 261.216 444.095C261.21 444.136 261.159 444.23 261.063 444.377ZM253.517 462.581C252.719 461.905 252.075 461.123 251.588 460.234C251.099 459.346 250.819 458.441 250.746 457.523C250.673 456.603 250.848 455.707 251.273 454.834C251.697 453.961 252.404 453.199 253.394 452.549C254.757 451.634 256.122 451.287 257.49 451.506C258.858 451.725 259.911 452.641 260.65 454.254C261.344 455.652 261.677 457.162 261.649 458.785C261.621 460.407 260.981 461.809 259.728 462.99C258.814 463.901 257.78 464.276 256.628 464.115C255.475 463.954 254.438 463.442 253.517 462.581Z" fill="#E8E6EF"/>
<path d="M664.781 520.275H576.569C574.801 520.275 573.368 518.693 573.368 516.741V403.01C573.368 401.059 574.801 399.477 576.569 399.477H664.781C666.549 399.477 667.982 401.059 667.982 403.01V516.741C667.982 518.693 666.549 520.275 664.781 520.275Z" fill="#1B3D9E"/>
<mask id="mask4_204_818" style="mask-type:luminance" maskUnits="userSpaceOnUse" x="573" y="399" width="95" height="122">
<path d="M664.781 520.275H576.569C574.801 520.275 573.368 518.693 573.368 516.741V403.01C573.368 401.059 574.801 399.477 576.569 399.477H664.781C666.549 399.477 667.982 401.059 667.982 403.01V516.741C667.982 518.693 666.549 520.275 664.781 520.275Z" fill="white"/>
</mask>
<g mask="url(#mask4_204_818)">
<path d="M670.645 416.582C670.645 416.582 633.588 474.176 566.521 490.116V525.369H672.982C672.982 525.369 675.761 418.645 670.645 416.582Z" fill="#1C056D"/>
</g>
<path d="M598.377 399.477C598.377 399.477 597.122 300.036 598.796 298.881C600.47 297.726 613.234 296.571 614.281 299.342C615.327 302.114 614.281 399.476 614.281 399.476H598.377V399.477Z" fill="#EE780C"/>
<mask id="mask5_204_818" style="mask-type:luminance" maskUnits="userSpaceOnUse" x="597" y="297" width="18" height="103">
<path d="M598.377 399.477C598.377 399.477 597.122 300.036 598.796 298.881C600.47 297.726 613.234 296.571 614.281 299.342C615.327 302.114 614.281 399.476 614.281 399.476H598.377V399.477Z" fill="white"/>
</mask>
<g mask="url(#mask5_204_818)">
<path d="M609.324 313.066V401.439H603.347V313.243L609.324 313.066Z" fill="#EE780C"/>
</g>
<mask id="mask6_204_818" style="mask-type:luminance" maskUnits="userSpaceOnUse" x="597" y="297" width="18" height="103">
<path d="M598.377 399.477C598.377 399.477 597.122 300.036 598.796 298.881C600.47 297.726 613.234 296.571 614.281 299.342C615.327 302.114 614.281 399.476 614.281 399.476H598.377V399.477Z" fill="white"/>
</mask>
<g mask="url(#mask6_204_818)">
<path d="M595.444 316.885C595.444 316.885 614.017 315.33 616.606 316.759C616.606 316.759 616.476 296.326 615.441 295.897C614.405 295.468 596.67 295.358 596.281 297.628C595.894 299.898 595.444 316.885 595.444 316.885Z" fill="#D4DFFF"/>
</g>
<path d="M660.605 399.477H623.642V255.955C623.642 255.351 624.086 254.862 624.632 254.862H659.616C660.162 254.862 660.605 255.351 660.605 255.955V399.477H660.605Z" fill="#D4DFFF"/>
<mask id="mask7_204_818" style="mask-type:luminance" maskUnits="userSpaceOnUse" x="623" y="254" width="38" height="146">
<path d="M660.605 399.477H623.642V255.955C623.642 255.351 624.086 254.862 624.632 254.862H659.616C660.162 254.862 660.605 255.351 660.605 255.955V399.477H660.605Z" fill="white"/>
</mask>
<g mask="url(#mask7_204_818)">
<path opacity="0.46" d="M633.355 249.576H620.675V404.74H633.355V249.576Z" fill="#6880E4"/>
</g>
<mask id="mask8_204_818" style="mask-type:luminance" maskUnits="userSpaceOnUse" x="623" y="254" width="38" height="146">
<path d="M660.605 399.477H623.642V255.955C623.642 255.351 624.086 254.862 624.632 254.862H659.616C660.162 254.862 660.605 255.351 660.605 255.955V399.477H660.605Z" fill="white"/>
</mask>
<g mask="url(#mask8_204_818)">
<path d="M628.3 265.957H623.642V267.747H628.3V265.957Z" fill="#6880E4"/>
</g>
<mask id="mask9_204_818" style="mask-type:luminance" maskUnits="userSpaceOnUse" x="623" y="254" width="38" height="146">
<path d="M660.605 399.477H623.642V255.955C623.642 255.351 624.086 254.862 624.632 254.862H659.616C660.162 254.862 660.605 255.351 660.605 255.955V399.477H660.605Z" fill="white"/>
</mask>
<g mask="url(#mask9_204_818)">
<path d="M628.3 274.2H623.642V275.991H628.3V274.2Z" fill="#6880E4"/>
</g>
<mask id="mask10_204_818" style="mask-type:luminance" maskUnits="userSpaceOnUse" x="623" y="254" width="38" height="146">
<path d="M660.605 399.477H623.642V255.955C623.642 255.351 624.086 254.862 624.632 254.862H659.616C660.162 254.862 660.605 255.351 660.605 255.955V399.477H660.605Z" fill="white"/>
</mask>
<g mask="url(#mask10_204_818)">
<path d="M628.3 282.444H623.642V284.235H628.3V282.444Z" fill="#6880E4"/>
</g>
<mask id="mask11_204_818" style="mask-type:luminance" maskUnits="userSpaceOnUse" x="623" y="254" width="38" height="146">
<path d="M660.605 399.477H623.642V255.955C623.642 255.351 624.086 254.862 624.632 254.862H659.616C660.162 254.862 660.605 255.351 660.605 255.955V399.477H660.605Z" fill="white"/>
</mask>
<g mask="url(#mask11_204_818)">
<path d="M628.3 290.688H623.642V292.478H628.3V290.688Z" fill="#6880E4"/>
</g>
<mask id="mask12_204_818" style="mask-type:luminance" maskUnits="userSpaceOnUse" x="623" y="254" width="38" height="146">
<path d="M660.605 399.477H623.642V255.955C623.642 255.351 624.086 254.862 624.632 254.862H659.616C660.162 254.862 660.605 255.351 660.605 255.955V399.477H660.605Z" fill="white"/>
</mask>
<g mask="url(#mask12_204_818)">
<path d="M628.3 298.932H623.642V300.722H628.3V298.932Z" fill="#6880E4"/>
</g>
<mask id="mask13_204_818" style="mask-type:luminance" maskUnits="userSpaceOnUse" x="623" y="254" width="38" height="146">
<path d="M660.605 399.477H623.642V255.955C623.642 255.351 624.086 254.862 624.632 254.862H659.616C660.162 254.862 660.605 255.351 660.605 255.955V399.477H660.605Z" fill="white"/>
</mask>
<g mask="url(#mask13_204_818)">
<path d="M628.3 307.175H623.642V308.966H628.3V307.175Z" fill="#6880E4"/>
</g>
<mask id="mask14_204_818" style="mask-type:luminance" maskUnits="userSpaceOnUse" x="623" y="254" width="38" height="146">
<path d="M660.605 399.477H623.642V255.955C623.642 255.351 624.086 254.862 624.632 254.862H659.616C660.162 254.862 660.605 255.351 660.605 255.955V399.477H660.605Z" fill="white"/>
</mask>
<g mask="url(#mask14_204_818)">
<path d="M628.3 315.419H623.642V317.21H628.3V315.419Z" fill="#6880E4"/>
</g>
<mask id="mask15_204_818" style="mask-type:luminance" maskUnits="userSpaceOnUse" x="623" y="254" width="38" height="146">
<path d="M660.605 399.477H623.642V255.955C623.642 255.351 624.086 254.862 624.632 254.862H659.616C660.162 254.862 660.605 255.351 660.605 255.955V399.477H660.605Z" fill="white"/>
</mask>
<g mask="url(#mask15_204_818)">
<path d="M628.3 323.663H623.642V325.454H628.3V323.663Z" fill="#6880E4"/>
</g>
<mask id="mask16_204_818" style="mask-type:luminance" maskUnits="userSpaceOnUse" x="623" y="254" width="38" height="146">
<path d="M660.605 399.477H623.642V255.955C623.642 255.351 624.086 254.862 624.632 254.862H659.616C660.162 254.862 660.605 255.351 660.605 255.955V399.477H660.605Z" fill="white"/>
</mask>
<g mask="url(#mask16_204_818)">
<path d="M628.3 331.906H623.642V333.697H628.3V331.906Z" fill="#6880E4"/>
</g>
<mask id="mask17_204_818" style="mask-type:luminance" maskUnits="userSpaceOnUse" x="623" y="254" width="38" height="146">
<path d="M660.605 399.477H623.642V255.955C623.642 255.351 624.086 254.862 624.632 254.862H659.616C660.162 254.862 660.605 255.351 660.605 255.955V399.477H660.605Z" fill="white"/>
</mask>
<g mask="url(#mask17_204_818)">
<path d="M628.3 340.15H623.642V341.941H628.3V340.15Z" fill="#6880E4"/>
</g>
<mask id="mask18_204_818" style="mask-type:luminance" maskUnits="userSpaceOnUse" x="623" y="254" width="38" height="146">
<path d="M660.605 399.477H623.642V255.955C623.642 255.351 624.086 254.862 624.632 254.862H659.616C660.162 254.862 660.605 255.351 660.605 255.955V399.477H660.605Z" fill="white"/>
</mask>
<g mask="url(#mask18_204_818)">
<path d="M628.3 348.394H623.642V350.185H628.3V348.394Z" fill="#6880E4"/>
</g>
<mask id="mask19_204_818" style="mask-type:luminance" maskUnits="userSpaceOnUse" x="623" y="254" width="38" height="146">
<path d="M660.605 399.477H623.642V255.955C623.642 255.351 624.086 254.862 624.632 254.862H659.616C660.162 254.862 660.605 255.351 660.605 255.955V399.477H660.605Z" fill="white"/>
</mask>
<g mask="url(#mask19_204_818)">
<path d="M628.3 356.638H623.642V358.428H628.3V356.638Z" fill="#6880E4"/>
</g>
<mask id="mask20_204_818" style="mask-type:luminance" maskUnits="userSpaceOnUse" x="623" y="254" width="38" height="146">
<path d="M660.605 399.477H623.642V255.955C623.642 255.351 624.086 254.862 624.632 254.862H659.616C660.162 254.862 660.605 255.351 660.605 255.955V399.477H660.605Z" fill="white"/>
</mask>
<g mask="url(#mask20_204_818)">
<path d="M628.3 364.882H623.642V366.672H628.3V364.882Z" fill="#6880E4"/>
</g>
<mask id="mask21_204_818" style="mask-type:luminance" maskUnits="userSpaceOnUse" x="623" y="254" width="38" height="146">
<path d="M660.605 399.477H623.642V255.955C623.642 255.351 624.086 254.862 624.632 254.862H659.616C660.162 254.862 660.605 255.351 660.605 255.955V399.477H660.605Z" fill="white"/>
</mask>
<g mask="url(#mask21_204_818)">
<path d="M628.3 373.125H623.642V374.916H628.3V373.125Z" fill="#6880E4"/>
</g>
<mask id="mask22_204_818" style="mask-type:luminance" maskUnits="userSpaceOnUse" x="623" y="254" width="38" height="146">
<path d="M660.605 399.477H623.642V255.955C623.642 255.351 624.086 254.862 624.632 254.862H659.616C660.162 254.862 660.605 255.351 660.605 255.955V399.477H660.605Z" fill="white"/>
</mask>
<g mask="url(#mask22_204_818)">
<path d="M628.3 381.369H623.642V383.16H628.3V381.369Z" fill="#6880E4"/>
</g>
<mask id="mask23_204_818" style="mask-type:luminance" maskUnits="userSpaceOnUse" x="623" y="254" width="38" height="146">
<path d="M660.605 399.477H623.642V255.955C623.642 255.351 624.086 254.862 624.632 254.862H659.616C660.162 254.862 660.605 255.351 660.605 255.955V399.477H660.605Z" fill="white"/>
</mask>
<g mask="url(#mask23_204_818)">
<path d="M628.3 389.613H623.642V391.404H628.3V389.613Z" fill="#6880E4"/>
</g>
<mask id="mask24_204_818" style="mask-type:luminance" maskUnits="userSpaceOnUse" x="623" y="254" width="38" height="146">
<path d="M660.605 399.477H623.642V255.955C623.642 255.351 624.086 254.862 624.632 254.862H659.616C660.162 254.862 660.605 255.351 660.605 255.955V399.477H660.605Z" fill="white"/>
</mask>
<g mask="url(#mask24_204_818)">
<path opacity="0.17" d="M652.61 249.406C642.353 259.104 638.756 276.45 644.169 290.107C646.745 296.607 651.149 302.404 651.975 309.44C652.776 316.265 650.057 322.904 647.906 329.364C645.786 335.73 644.155 342.455 644.585 349.221C645.289 360.286 651.438 370.637 650.434 381.673C649.469 392.274 641.999 401.502 642.429 412.145C642.553 412.145 642.3 412.614 642.423 412.614H666.437L666.426 248.727L669.38 248.759L652.61 249.406Z" fill="#6880E4"/>
</g>
<path d="M732.414 521.954H125.695C125.072 521.954 124.568 521.397 124.568 520.711C124.568 520.024 125.072 519.467 125.695 519.467H732.414C733.036 519.467 733.54 520.024 733.54 520.711C733.54 521.397 733.036 521.954 732.414 521.954Z" fill="#1C056D"/>
<path d="M310.69 179.314L296.651 181.318C288.922 177.321 281.437 174.733 274.459 175.537C267.449 176.346 263.422 184.446 265.152 189.901C266.673 194.698 279.285 199.618 284.726 199.734C290.166 199.849 298.432 198.463 301.466 195.492C301.47 195.488 301.473 195.483 301.477 195.478H310.69V179.314H310.69Z" fill="#FE8E9C"/>
<mask id="mask25_204_818" style="mask-type:luminance" maskUnits="userSpaceOnUse" x="264" y="175" width="47" height="25">
<path d="M310.69 179.314L296.651 181.318C288.922 177.321 281.437 174.733 274.459 175.537C267.449 176.346 263.422 184.446 265.152 189.901C266.673 194.698 279.285 199.618 284.726 199.734C290.166 199.849 298.432 198.463 301.466 195.492C301.47 195.488 301.473 195.483 301.477 195.478H310.69V179.314H310.69Z" fill="white"/>
</mask>
<g mask="url(#mask25_204_818)">
<path d="M279.84 200.472C279.84 200.472 282.542 194.644 282.419 190.171C282.296 185.698 276.727 178.729 276.727 178.729L272.104 178.989C272.104 178.989 273.612 195.321 272.275 198.202L279.84 200.472Z" fill="#E57492"/>
</g>
<path d="M301.466 195.493C301.466 195.493 304.247 190.781 297.784 186.025C297.784 186.025 303.548 187.053 305.528 191.295C307.508 195.537 307.1 195.601 307.1 195.601L301.466 195.493Z" fill="#E57492"/>
<path d="M296.651 181.319C296.651 181.319 292.151 181.76 291.281 181.783C288.129 181.867 284.971 182.059 284.971 182.059C284.971 182.059 283.008 175.025 280.121 176.466C275.881 178.583 280.727 181.868 280.727 181.868C280.727 181.868 273.192 180.481 272.456 180.434C271.72 180.386 278.096 195.232 271.293 199.741C264.491 204.25 256.913 201.874 255.966 190.183C255.019 178.492 265.869 167.277 275.858 167.657C285.846 168.037 296.651 181.319 296.651 181.319Z" fill="#1B3D9E"/>
<mask id="mask26_204_818" style="mask-type:luminance" maskUnits="userSpaceOnUse" x="255" y="167" width="42" height="35">
<path d="M296.651 181.319C296.651 181.319 292.151 181.76 291.281 181.783C288.129 181.867 284.971 182.059 284.971 182.059C284.971 182.059 283.008 175.025 280.121 176.466C275.881 178.583 280.727 181.868 280.727 181.868C280.727 181.868 273.192 180.481 272.456 180.434C271.72 180.386 278.096 195.232 271.293 199.741C264.491 204.25 256.913 201.874 255.966 190.183C255.019 178.492 265.869 167.277 275.858 167.657C285.846 168.037 296.651 181.319 296.651 181.319Z" fill="white"/>
</mask>
<g mask="url(#mask26_204_818)">
<path d="M265.51 201.877C265.51 201.877 270.689 197.089 270.433 191.796C270.177 186.504 268.631 178.218 269.391 177.668C270.15 177.118 278.127 180.632 278.127 180.632C278.127 180.632 276.658 178.256 279.217 177.039C279.217 177.039 283.271 181.937 282.985 182.451C282.698 182.965 273.384 181.937 273.384 181.937C273.384 181.937 277.038 191.843 274.423 197.695C271.807 203.547 265.51 201.877 265.51 201.877Z" fill="#1C056D"/>
</g>
<path d="M296.356 195.601C296.356 195.601 294.212 194.921 294.212 190.813C294.212 186.705 294.212 190.402 294.212 190.402C294.212 190.402 296.39 194.774 296.356 195.601Z" fill="#E8E6EF"/>
<path d="M278.925 190.59C278.925 190.59 287.475 195.723 288.278 195.178C289.08 194.633 287.63 188.876 287.63 188.876C287.63 188.876 288.556 188.807 288.772 189.727C288.987 190.647 290.191 196.064 288.772 196.166C287.352 196.268 280.313 192.441 278.925 190.59Z" fill="#E57492"/>
<path d="M328.372 288.096C328.372 288.096 326.275 291.209 325.582 292.75C324.89 294.29 324.667 301.993 324.812 301.966C324.957 301.94 326.508 301.849 326.829 300.83L328.543 294.327C328.543 294.327 328.661 301.3 328.452 301.794C328.243 302.288 324.605 310.291 324.926 310.545C325.246 310.799 326.623 311.726 327.697 309.731C328.77 307.737 331.307 302.573 331.62 301.748C331.932 300.924 326.649 312.631 326.861 312.724C327.074 312.817 328.427 313.591 328.963 312.828C329.5 312.065 334.228 303.756 334.384 303.087C334.54 302.418 331.437 311.049 331.599 311.045C331.761 311.041 332.38 311.928 333.226 310.75C334.071 309.573 336.913 303.244 337.05 302.912C337.186 302.58 337.143 298.548 337.143 298.548C337.143 298.548 337.851 303.283 337.686 303.9C337.52 304.517 336.218 308.103 336.822 308.228C337.281 308.324 338.079 307.352 338.706 306.081C339.333 304.81 340.13 302.907 340.071 301.099C340.011 299.291 336.995 289.173 336.995 289.173L328.372 288.096Z" fill="#FE8E9C"/>
<mask id="mask27_204_818" style="mask-type:luminance" maskUnits="userSpaceOnUse" x="324" y="288" width="17" height="26">
<path d="M328.372 288.096C328.372 288.096 326.275 291.209 325.582 292.75C324.89 294.29 324.667 301.993 324.812 301.966C324.957 301.94 326.508 301.849 326.829 300.83L328.543 294.327C328.543 294.327 328.661 301.3 328.452 301.794C328.243 302.288 324.605 310.291 324.926 310.545C325.246 310.799 326.623 311.726 327.697 309.731C328.77 307.737 331.307 302.573 331.62 301.748C331.932 300.924 326.649 312.631 326.861 312.724C327.074 312.817 328.427 313.591 328.963 312.828C329.5 312.065 334.228 303.756 334.384 303.087C334.54 302.418 331.437 311.049 331.599 311.045C331.761 311.041 332.38 311.928 333.226 310.75C334.071 309.573 336.913 303.244 337.05 302.912C337.186 302.58 337.143 298.548 337.143 298.548C337.143 298.548 337.851 303.283 337.686 303.9C337.52 304.517 336.218 308.103 336.822 308.228C337.281 308.324 338.079 307.352 338.706 306.081C339.333 304.81 340.13 302.907 340.071 301.099C340.011 299.291 336.995 289.173 336.995 289.173L328.372 288.096Z" fill="white"/>
</mask>
<g mask="url(#mask27_204_818)">
<path d="M324.003 295.452C324.134 295.979 330.562 292.043 339.317 293.554C339.317 293.554 338.139 287.685 337.184 287.158C336.229 286.631 328.715 286.631 327.569 287.228C326.422 287.825 323.398 293.027 324.003 295.452Z" fill="#E57492"/>
</g>
<path d="M406.94 172.602C406.94 171.982 406.538 171.45 405.984 171.34L360.433 162.298C322.221 158.691 310.69 177.36 310.69 177.36V195.486L315.16 195.466C318.47 206.135 327.886 236.707 328.845 242.261C330.01 249.012 322.493 289.664 323.272 290.203C324.051 290.742 340.926 293.034 342.484 292.748C344.041 292.461 351.83 247.691 351.31 242.28C350.912 238.126 349.748 209.639 346.88 195.327L406.94 195.063V172.602Z" fill="#EE780C"/>
<path d="M346.88 195.327C346.88 195.327 345.742 188.679 340.691 184.064C340.691 184.064 367.692 190.025 375.531 190.602C383.37 191.178 406.941 188.89 406.941 188.89V195.063L346.88 195.327Z" fill="#EE780C"/>
<path d="M542.387 213.222C542.387 213.222 551.881 210.733 552.118 211.213C552.356 211.693 553.701 216.496 553.186 218.243C552.672 219.989 543.336 223.744 543.336 223.744L542.387 213.222Z" fill="#E57492"/>
<path d="M549.784 181.355C549.784 181.355 459.854 173.21 441.177 168.884C422.499 164.557 406.94 173.962 406.94 173.962V195.063C406.94 195.063 455.268 240.51 476.938 241.108C498.609 241.706 543.937 228.351 544.298 226.158C544.659 223.966 544.298 211.009 542.492 210.212C540.686 209.415 480.731 216.989 479.647 215.594C478.943 214.688 468.792 203.439 459.883 195.063H549.784V181.355H549.784Z" fill="#1B3D9E"/>
<mask id="mask28_204_818" style="mask-type:luminance" maskUnits="userSpaceOnUse" x="406" y="167" width="144" height="75">
<path d="M549.784 181.355C549.784 181.355 459.854 173.21 441.177 168.884C422.499 164.557 406.94 173.962 406.94 173.962V195.063C406.94 195.063 455.268 240.51 476.938 241.108C498.609 241.706 543.937 228.351 544.298 226.158C544.659 223.966 544.298 211.009 542.492 210.212C540.686 209.415 480.731 216.989 479.647 215.594C478.943 214.688 468.792 203.439 459.883 195.063H549.784V181.355H549.784Z" fill="white"/>
</mask>
<g mask="url(#mask28_204_818)">
<path d="M481.356 229.132C481.038 229.132 480.784 229.12 480.581 229.095C480.532 229.089 480.48 229.081 480.427 229.07C480.197 229.026 480.043 228.785 480.084 228.531C480.124 228.277 480.343 228.106 480.572 228.152C480.608 228.159 480.642 228.164 480.674 228.168C480.941 228.201 481.36 228.208 481.892 228.189C482.127 228.181 482.321 228.383 482.328 228.64C482.335 228.898 482.153 229.113 481.919 229.121C481.715 229.128 481.526 229.132 481.356 229.132ZM483.318 229.038C483.098 229.038 482.913 228.85 482.897 228.604C482.88 228.347 483.056 228.124 483.289 228.106C483.717 228.073 484.186 228.031 484.69 227.982C484.919 227.959 485.128 228.148 485.148 228.405C485.169 228.661 484.998 228.888 484.765 228.91C484.255 228.961 483.781 229.003 483.348 229.037C483.338 229.037 483.328 229.038 483.318 229.038ZM486.135 228.764C485.92 228.764 485.737 228.585 485.715 228.345C485.691 228.089 485.861 227.86 486.093 227.834C486.539 227.784 487.007 227.73 487.494 227.671C487.725 227.644 487.935 227.828 487.96 228.084C487.985 228.34 487.818 228.57 487.586 228.598C487.096 228.657 486.626 228.712 486.178 228.762C486.163 228.764 486.149 228.764 486.135 228.764ZM479.162 228.588C479.107 228.588 479.051 228.576 478.997 228.551C478.616 228.373 478.176 228.146 477.691 227.878C477.482 227.762 477.398 227.482 477.502 227.252C477.607 227.021 477.861 226.929 478.069 227.044C478.539 227.304 478.962 227.522 479.327 227.692C479.542 227.793 479.642 228.067 479.551 228.304C479.482 228.481 479.326 228.588 479.162 228.588ZM488.942 228.427C488.73 228.427 488.548 228.252 488.523 228.014C488.496 227.758 488.662 227.527 488.894 227.498C489.347 227.44 489.815 227.379 490.294 227.316C490.526 227.284 490.736 227.468 490.764 227.723C490.791 227.979 490.626 228.211 490.394 228.242C489.914 228.305 489.445 228.366 488.991 228.424C488.975 228.426 488.958 228.427 488.942 228.427ZM491.745 228.057C491.535 228.057 491.353 227.884 491.327 227.648C491.298 227.392 491.462 227.159 491.694 227.128C492.151 227.065 492.617 227 493.093 226.934C493.323 226.901 493.536 227.082 493.565 227.337C493.594 227.593 493.431 227.826 493.199 227.859C492.723 227.926 492.255 227.991 491.798 228.053C491.78 228.055 491.763 228.057 491.745 228.057ZM494.544 227.664C494.335 227.664 494.153 227.493 494.126 227.258C494.096 227.002 494.259 226.768 494.49 226.735C494.95 226.669 495.416 226.602 495.888 226.533C496.12 226.5 496.332 226.679 496.362 226.934C496.393 227.189 496.23 227.423 495.999 227.457C495.526 227.526 495.059 227.594 494.599 227.66C494.581 227.663 494.562 227.664 494.544 227.664ZM497.342 227.255C497.134 227.255 496.952 227.085 496.924 226.851C496.893 226.596 497.055 226.361 497.286 226.327L498.683 226.118C498.913 226.081 499.127 226.262 499.159 226.517C499.19 226.772 499.028 227.007 498.797 227.042L497.399 227.251C497.38 227.254 497.36 227.255 497.342 227.255ZM476.627 227.203C476.559 227.203 476.49 227.185 476.426 227.147C476.033 226.911 475.619 226.656 475.184 226.384C474.981 226.256 474.91 225.971 475.026 225.748C475.141 225.524 475.399 225.445 475.602 225.573C476.031 225.842 476.441 226.094 476.829 226.327C477.034 226.45 477.11 226.733 476.999 226.959C476.922 227.115 476.777 227.203 476.627 227.203ZM500.137 226.835C499.929 226.835 499.748 226.666 499.719 226.432C499.687 226.177 499.849 225.941 500.08 225.906L501.476 225.692C501.706 225.658 501.921 225.835 501.953 226.09C501.985 226.345 501.824 226.581 501.593 226.616L500.196 226.83C500.176 226.833 500.156 226.835 500.137 226.835ZM502.931 226.404C502.724 226.404 502.543 226.236 502.513 226.003C502.481 225.748 502.641 225.512 502.872 225.476L504.268 225.258C504.497 225.22 504.713 225.399 504.746 225.654C504.779 225.909 504.618 226.145 504.387 226.181L502.99 226.4C502.97 226.403 502.95 226.404 502.931 226.404ZM505.723 225.966C505.516 225.966 505.336 225.798 505.305 225.566C505.272 225.311 505.433 225.075 505.664 225.038L507.059 224.816C507.292 224.78 507.505 224.956 507.538 225.211C507.571 225.466 507.411 225.703 507.18 225.739L505.783 225.961C505.763 225.964 505.743 225.966 505.723 225.966ZM474.17 225.663C474.098 225.663 474.024 225.643 473.956 225.599C473.564 225.343 473.158 225.076 472.74 224.798C472.54 224.665 472.476 224.378 472.596 224.158C472.717 223.937 472.977 223.866 473.176 223.999C473.591 224.276 473.995 224.541 474.385 224.795C474.586 224.926 474.653 225.211 474.535 225.433C474.456 225.581 474.315 225.663 474.17 225.663ZM508.514 225.521C508.308 225.521 508.127 225.354 508.096 225.121C508.063 224.867 508.223 224.63 508.454 224.593L509.849 224.368C510.082 224.331 510.295 224.507 510.328 224.762C510.362 225.017 510.203 225.254 509.972 225.291L508.576 225.516C508.555 225.519 508.534 225.521 508.514 225.521ZM511.304 225.069C511.098 225.069 510.918 224.903 510.887 224.671C510.853 224.416 511.013 224.179 511.244 224.142L512.639 223.915C512.869 223.877 513.084 224.053 513.119 224.307C513.153 224.562 512.993 224.799 512.763 224.837L511.367 225.064C511.346 225.068 511.325 225.069 511.304 225.069ZM514.1 224.612C513.894 224.612 513.714 224.446 513.682 224.215C513.648 223.96 513.807 223.723 514.038 223.685L515.434 223.455C515.667 223.416 515.88 223.592 515.915 223.847C515.949 224.102 515.79 224.339 515.559 224.377L514.162 224.607C514.141 224.611 514.12 224.612 514.1 224.612ZM516.889 224.152C516.683 224.152 516.503 223.986 516.471 223.755C516.437 223.5 516.596 223.263 516.827 223.224L518.221 222.993C518.452 222.954 518.667 223.129 518.701 223.384C518.736 223.639 518.577 223.876 518.347 223.915L516.952 224.147C516.931 224.15 516.91 224.152 516.889 224.152ZM471.752 224.054C471.677 224.054 471.6 224.032 471.531 223.985C471.139 223.719 470.739 223.444 470.33 223.162C470.132 223.026 470.072 222.738 470.195 222.52C470.319 222.301 470.579 222.234 470.777 222.371C471.185 222.652 471.584 222.925 471.974 223.191C472.173 223.326 472.235 223.613 472.112 223.832C472.033 223.975 471.894 224.054 471.752 224.054ZM519.678 223.687C519.473 223.687 519.293 223.522 519.261 223.291C519.226 223.036 519.385 222.798 519.615 222.76L521.009 222.526C521.239 222.489 521.455 222.662 521.49 222.917C521.526 223.171 521.367 223.409 521.136 223.448L519.742 223.682C519.72 223.685 519.699 223.687 519.678 223.687ZM522.466 223.218C522.261 223.218 522.081 223.053 522.049 222.822C522.014 222.568 522.172 222.329 522.403 222.291L523.796 222.055C524.028 222.016 524.243 222.191 524.278 222.445C524.313 222.7 524.155 222.938 523.925 222.977L522.53 223.213C522.509 223.216 522.487 223.218 522.466 223.218ZM525.254 222.746C525.049 222.746 524.869 222.581 524.837 222.35C524.801 222.095 524.96 221.857 525.19 221.818L526.584 221.581C526.813 221.543 527.031 221.716 527.066 221.971C527.102 222.226 526.943 222.464 526.713 222.503L525.319 222.74C525.297 222.744 525.276 222.746 525.254 222.746ZM469.358 222.404C469.281 222.404 469.203 222.38 469.133 222.332C468.742 222.058 468.344 221.779 467.941 221.494C467.744 221.355 467.687 221.066 467.813 220.849C467.939 220.633 468.2 220.569 468.396 220.708C468.799 220.992 469.195 221.271 469.585 221.543C469.782 221.681 469.841 221.969 469.716 222.187C469.636 222.327 469.498 222.404 469.358 222.404ZM528.042 222.27C527.837 222.27 527.657 222.105 527.625 221.875C527.589 221.621 527.747 221.382 527.978 221.343L529.371 221.104C529.604 221.065 529.818 221.239 529.854 221.493C529.89 221.748 529.732 221.986 529.501 222.026L528.107 222.265C528.085 222.268 528.063 222.27 528.042 222.27ZM530.829 221.791C530.625 221.791 530.445 221.627 530.413 221.397C530.377 221.142 530.534 220.904 530.765 220.864L532.159 220.624C532.388 220.585 532.606 220.758 532.641 221.012C532.678 221.267 532.52 221.505 532.289 221.545L530.895 221.785C530.873 221.79 530.851 221.791 530.829 221.791ZM533.617 221.31C533.413 221.31 533.233 221.146 533.201 220.916C533.164 220.661 533.322 220.423 533.553 220.383L534.946 220.141C535.179 220.101 535.393 220.275 535.429 220.529C535.466 220.784 535.308 221.022 535.078 221.062L533.683 221.305C533.661 221.308 533.639 221.31 533.617 221.31ZM536.406 220.825C536.201 220.825 536.022 220.661 535.989 220.431C535.952 220.177 536.11 219.938 536.34 219.898L537.735 219.655C537.962 219.614 538.181 219.788 538.218 220.042C538.254 220.297 538.097 220.536 537.867 220.576L536.472 220.82C536.45 220.823 536.428 220.825 536.406 220.825ZM466.982 220.725C466.903 220.725 466.824 220.701 466.753 220.651C466.363 220.372 465.968 220.089 465.568 219.802C465.373 219.662 465.318 219.373 465.445 219.157C465.572 218.941 465.834 218.88 466.03 219.021C466.428 219.307 466.822 219.59 467.211 219.867C467.407 220.007 467.463 220.295 467.337 220.512C467.256 220.65 467.12 220.725 466.982 220.725ZM539.194 220.337C538.99 220.337 538.811 220.174 538.778 219.944C538.741 219.69 538.898 219.451 539.129 219.41L540.524 219.166C540.753 219.123 540.971 219.298 541.007 219.552C541.044 219.807 540.887 220.046 540.657 220.086L539.261 220.331C539.239 220.336 539.216 220.337 539.194 220.337ZM541.986 219.846C541.782 219.846 541.602 219.683 541.569 219.454C541.532 219.199 541.689 218.96 541.919 218.92L543.316 218.673C543.545 218.632 543.763 218.805 543.8 219.059C543.837 219.314 543.68 219.553 543.45 219.594L542.053 219.841C542.03 219.844 542.008 219.846 541.986 219.846ZM544.782 219.351C544.578 219.351 544.399 219.188 544.365 218.959C544.328 218.705 544.485 218.465 544.715 218.424L546.124 218.173C546.354 218.133 546.571 218.304 546.609 218.559C546.646 218.813 546.49 219.052 546.26 219.094L544.85 219.345C544.827 219.349 544.804 219.351 544.782 219.351ZM464.618 219.026C464.538 219.026 464.458 219.001 464.386 218.949C463.997 218.667 463.604 218.381 463.208 218.092C463.013 217.95 462.959 217.661 463.088 217.446C463.216 217.231 463.479 217.172 463.673 217.314C464.069 217.603 464.461 217.888 464.85 218.17C465.045 218.311 465.099 218.6 464.972 218.815C464.891 218.952 464.756 219.026 464.618 219.026ZM462.264 217.31C462.184 217.31 462.103 217.284 462.031 217.232C461.642 216.946 461.251 216.658 460.856 216.368C460.663 216.225 460.61 215.935 460.74 215.721C460.869 215.507 461.132 215.449 461.326 215.592C461.719 215.882 462.11 216.17 462.499 216.455C462.693 216.597 462.746 216.887 462.617 217.101C462.535 217.236 462.401 217.31 462.264 217.31ZM459.918 215.581C459.838 215.581 459.756 215.555 459.683 215.501L458.513 214.632C458.319 214.488 458.268 214.198 458.398 213.985C458.528 213.772 458.791 213.714 458.984 213.859L460.154 214.727C460.348 214.87 460.4 215.16 460.269 215.374C460.188 215.508 460.055 215.581 459.918 215.581ZM457.58 213.841C457.499 213.841 457.416 213.815 457.344 213.76L456.176 212.886C455.983 212.742 455.933 212.451 456.064 212.239C456.195 212.025 456.458 211.971 456.651 212.115L457.817 212.988C458.01 213.132 458.061 213.422 457.93 213.636C457.848 213.769 457.716 213.841 457.58 213.841ZM455.247 212.091C455.165 212.091 455.082 212.065 455.01 212.01L453.847 211.134C453.654 210.989 453.605 210.699 453.736 210.486C453.868 210.274 454.131 210.219 454.324 210.364L455.485 211.24C455.678 211.385 455.728 211.675 455.597 211.888C455.515 212.02 455.382 212.091 455.247 212.091ZM452.922 210.336C452.839 210.336 452.756 210.309 452.683 210.254L451.517 209.37C451.325 209.224 451.276 208.934 451.409 208.722C451.541 208.509 451.804 208.456 451.996 208.602L453.161 209.485C453.354 209.631 453.403 209.921 453.271 210.133C453.188 210.265 453.056 210.336 452.922 210.336ZM450.595 208.569C450.512 208.569 450.428 208.542 450.355 208.486L449.195 207.602C449.002 207.455 448.954 207.165 449.087 206.953C449.22 206.741 449.483 206.688 449.675 206.834L450.835 207.719C451.027 207.865 451.076 208.155 450.943 208.367C450.861 208.499 450.729 208.569 450.595 208.569ZM448.275 206.799C448.192 206.799 448.108 206.772 448.035 206.716L446.876 205.828C446.684 205.681 446.637 205.391 446.77 205.179C446.903 204.967 447.167 204.915 447.358 205.062L448.516 205.949C448.708 206.096 448.755 206.386 448.623 206.598C448.54 206.729 448.409 206.799 448.275 206.799ZM445.958 205.023C445.875 205.023 445.791 204.995 445.717 204.939L444.56 204.049C444.368 203.902 444.321 203.611 444.455 203.4C444.588 203.188 444.852 203.137 445.043 203.284L446.2 204.173C446.392 204.321 446.439 204.611 446.305 204.822C446.223 204.953 446.092 205.023 445.958 205.023ZM443.645 203.242C443.562 203.242 443.477 203.215 443.404 203.158L442.255 202.271C442.064 202.124 442.014 201.83 442.147 201.619C442.282 201.408 442.541 201.353 442.732 201.501L443.887 202.393C444.079 202.54 444.125 202.831 443.992 203.042C443.91 203.172 443.779 203.242 443.645 203.242ZM441.334 201.457C441.25 201.457 441.166 201.429 441.092 201.372L439.937 200.478C439.746 200.33 439.7 200.039 439.834 199.828C439.969 199.617 440.232 199.567 440.423 199.714L441.577 200.608C441.768 200.756 441.814 201.047 441.681 201.258C441.598 201.387 441.467 201.457 441.334 201.457ZM439.026 199.667C438.942 199.667 438.857 199.64 438.783 199.583L437.629 198.686C437.438 198.538 437.393 198.247 437.527 198.037C437.662 197.826 437.925 197.776 438.116 197.924L439.269 198.82C439.46 198.968 439.506 199.259 439.372 199.469C439.289 199.598 439.159 199.667 439.026 199.667ZM436.719 197.875C436.635 197.875 436.55 197.847 436.476 197.789L435.323 196.892C435.132 196.743 435.086 196.452 435.221 196.242C435.356 196.031 435.62 195.982 435.81 196.13L436.963 197.027C437.154 197.175 437.199 197.466 437.064 197.677C436.982 197.806 436.851 197.875 436.719 197.875ZM434.414 196.079C434.329 196.079 434.244 196.051 434.17 195.993L433.017 195.094C432.827 194.945 432.782 194.654 432.916 194.444C433.051 194.234 433.315 194.184 433.506 194.333L434.658 195.231C434.848 195.38 434.894 195.671 434.759 195.881C434.677 196.01 434.546 196.079 434.414 196.079ZM432.109 194.28C432.025 194.28 431.939 194.252 431.865 194.195L430.713 193.294C430.522 193.146 430.477 192.855 430.612 192.645C430.747 192.434 431.011 192.384 431.201 192.533L432.353 193.433C432.544 193.582 432.589 193.873 432.454 194.083C432.372 194.212 432.241 194.28 432.109 194.28ZM429.804 192.48C429.719 192.48 429.634 192.452 429.56 192.394L428.407 191.493C428.217 191.344 428.172 191.053 428.306 190.843C428.442 190.633 428.706 190.584 428.895 190.732L430.048 191.633C430.239 191.782 430.284 192.073 430.149 192.283C430.067 192.411 429.936 192.48 429.804 192.48ZM427.497 190.679C427.413 190.679 427.327 190.651 427.253 190.593L426.098 189.693C425.907 189.545 425.862 189.254 425.996 189.044C426.131 188.834 426.394 188.783 426.585 188.931L427.741 189.832C427.931 189.98 427.977 190.271 427.842 190.482C427.76 190.61 427.629 190.679 427.497 190.679ZM425.181 188.88C425.098 188.88 425.013 188.853 424.94 188.796C424.411 188.388 424.017 188.089 423.777 187.913C423.583 187.771 423.529 187.481 423.659 187.267C423.787 187.052 424.05 186.993 424.244 187.136C424.488 187.314 424.887 187.618 425.424 188.032C425.615 188.179 425.662 188.47 425.528 188.681C425.446 188.81 425.315 188.88 425.181 188.88Z" fill="#1C056D"/>
</g>
<mask id="mask29_204_818" style="mask-type:luminance" maskUnits="userSpaceOnUse" x="406" y="167" width="144" height="75">
<path d="M549.784 181.355C549.784 181.355 459.854 173.21 441.177 168.884C422.499 164.557 406.94 173.962 406.94 173.962V195.063C406.94 195.063 455.268 240.51 476.938 241.108C498.609 241.706 543.937 228.351 544.298 226.158C544.659 223.966 544.298 211.009 542.492 210.212C540.686 209.415 480.731 216.989 479.647 215.594C478.943 214.688 468.792 203.439 459.883 195.063H549.784V181.355H549.784Z" fill="white"/>
</mask>
<g mask="url(#mask29_204_818)">
<path d="M410.117 171.193C410.117 171.193 410.908 199.046 410.513 199.483C410.117 199.92 405.664 196.315 405.664 196.315C405.664 196.315 405.145 174.103 405.565 172.722C405.984 171.341 410.117 171.193 410.117 171.193Z" fill="#1C056D"/>
</g>
<mask id="mask30_204_818" style="mask-type:luminance" maskUnits="userSpaceOnUse" x="406" y="167" width="144" height="75">
<path d="M549.784 181.355C549.784 181.355 459.854 173.21 441.177 168.884C422.499 164.557 406.94 173.962 406.94 173.962V195.063C406.94 195.063 455.268 240.51 476.938 241.108C498.609 241.706 543.937 228.351 544.298 226.158C544.659 223.966 544.298 211.009 542.492 210.212C540.686 209.415 480.731 216.989 479.647 215.594C478.943 214.688 468.792 203.439 459.883 195.063H549.784V181.355H549.784Z" fill="white"/>
</mask>
<g mask="url(#mask30_204_818)">
<path d="M459.883 195.063C459.883 195.063 440.55 177.494 437.572 176.642C437.572 176.642 457.095 181.512 472.207 186.26C487.318 191.008 551.293 190.034 551.293 190.034V197.096L459.883 195.063Z" fill="#1C056D"/>
</g>
<path d="M551.768 211.154C551.768 211.154 553.305 208.446 556.179 208.004C559.052 207.561 559.988 208.004 559.988 208.004C559.988 208.004 567.704 231.082 566.304 231.57C564.905 232.058 561.738 232.139 560.78 231.163C559.822 230.188 552.558 219.03 552.558 219.03C552.558 219.03 553.026 212.997 551.768 211.154Z" fill="#1B3D9E"/>
<mask id="mask31_204_818" style="mask-type:luminance" maskUnits="userSpaceOnUse" x="551" y="207" width="16" height="25">
<path d="M551.768 211.154C551.768 211.154 553.305 208.446 556.179 208.004C559.052 207.561 559.988 208.004 559.988 208.004C559.988 208.004 567.704 231.082 566.304 231.57C564.905 232.058 561.738 232.139 560.78 231.163C559.822 230.188 552.558 219.03 552.558 219.03C552.558 219.03 553.026 212.997 551.768 211.154Z" fill="white"/>
</mask>
<g mask="url(#mask31_204_818)">
<path d="M553.936 222.102C553.936 222.102 555.987 219.523 556.973 219.58C557.584 219.615 557.847 220.08 557.958 220.428C558.028 220.646 557.981 220.887 557.843 221.061C557.268 221.786 555.598 223.846 555.234 223.744C554.792 223.621 553.936 222.102 553.936 222.102Z" fill="#1C056D"/>
</g>
<mask id="mask32_204_818" style="mask-type:luminance" maskUnits="userSpaceOnUse" x="551" y="207" width="16" height="25">
<path d="M551.768 211.154C551.768 211.154 553.305 208.446 556.179 208.004C559.052 207.561 559.988 208.004 559.988 208.004C559.988 208.004 567.704 231.082 566.304 231.57C564.905 232.058 561.738 232.139 560.78 231.163C559.822 230.188 552.558 219.03 552.558 219.03C552.558 219.03 553.026 212.997 551.768 211.154Z" fill="white"/>
</mask>
<g mask="url(#mask32_204_818)">
<path d="M555.999 225.445C555.999 225.445 558.05 222.866 559.037 222.924C559.648 222.959 559.911 223.423 560.022 223.772C560.092 223.989 560.044 224.23 559.907 224.404C559.332 225.13 557.661 227.19 557.298 227.088C556.856 226.964 555.999 225.445 555.999 225.445Z" fill="#1C056D"/>
</g>
<mask id="mask33_204_818" style="mask-type:luminance" maskUnits="userSpaceOnUse" x="551" y="207" width="16" height="25">
<path d="M551.768 211.154C551.768 211.154 553.305 208.446 556.179 208.004C559.052 207.561 559.988 208.004 559.988 208.004C559.988 208.004 567.704 231.082 566.304 231.57C564.905 232.058 561.738 232.139 560.78 231.163C559.822 230.188 552.558 219.03 552.558 219.03C552.558 219.03 553.026 212.997 551.768 211.154Z" fill="white"/>
</mask>
<g mask="url(#mask33_204_818)">
<path d="M557.895 207.435C557.895 207.435 565.135 231.35 565.084 232.349C565.084 232.349 567.497 232.183 567.497 231.517C567.497 230.851 561.565 207.545 560.811 207.435C560.057 207.324 557.895 207.435 557.895 207.435Z" fill="#1C056D"/>
</g>
<path d="M549.783 186.108C549.783 186.108 558.671 187.473 558.837 187.963C559.004 188.454 559.036 195.075 559.036 195.075L549.783 195.093V186.108Z" fill="#E57492"/>
<path d="M558.471 187.766C558.471 187.766 559.517 184.865 562.574 184.68C565.631 184.494 572.783 188.696 573.421 188.992C574.06 189.289 582.674 191.847 582.823 191.931C584.666 192.961 583.026 195.387 583.026 195.387L559.036 195.075L558.471 187.766Z" fill="#1B3D9E"/>
<mask id="mask34_204_818" style="mask-type:luminance" maskUnits="userSpaceOnUse" x="558" y="184" width="26" height="12">
<path d="M558.471 187.766C558.471 187.766 559.517 184.865 562.574 184.68C565.631 184.494 572.783 188.696 573.421 188.992C574.06 189.289 582.674 191.847 582.823 191.931C584.666 192.961 583.026 195.387 583.026 195.387L559.036 195.075L558.471 187.766Z" fill="white"/>
</mask>
<g mask="url(#mask34_204_818)">
<path d="M560.921 184.674C561.214 184.971 571.527 190.383 573.059 190.601C574.592 190.819 584.028 193.624 584.028 193.624C584.028 193.624 584.538 192.199 583.698 191.665C582.859 191.131 573.745 188.727 573.019 188.282C572.293 187.837 563.502 183.92 562.776 184.054C562.05 184.187 560.921 184.674 560.921 184.674Z" fill="#1C056D"/>
</g>
<mask id="mask35_204_818" style="mask-type:luminance" maskUnits="userSpaceOnUse" x="558" y="184" width="26" height="12">
<path d="M558.471 187.766C558.471 187.766 559.517 184.865 562.574 184.68C565.631 184.494 572.783 188.696 573.421 188.992C574.06 189.289 582.674 191.847 582.823 191.931C584.666 192.961 583.026 195.387 583.026 195.387L559.036 195.075L558.471 187.766Z" fill="white"/>
</mask>
<g mask="url(#mask35_204_818)">
<path d="M563.526 195.612C563.715 194.862 564.389 191.234 564.902 191.109C565.415 190.984 566.662 191.359 566.624 191.567C566.586 191.776 566.322 195.737 565.49 195.737C564.659 195.737 563.526 195.612 563.526 195.612Z" fill="#1C056D"/>
</g>
<mask id="mask36_204_818" style="mask-type:luminance" maskUnits="userSpaceOnUse" x="558" y="184" width="26" height="12">
<path d="M558.471 187.766C558.471 187.766 559.517 184.865 562.574 184.68C565.631 184.494 572.783 188.696 573.421 188.992C574.06 189.289 582.674 191.847 582.823 191.931C584.666 192.961 583.026 195.387 583.026 195.387L559.036 195.075L558.471 187.766Z" fill="white"/>
</mask>
<g mask="url(#mask36_204_818)">
<path d="M568.411 196.655C568.6 195.904 569.273 192.276 569.787 192.151C570.3 192.026 571.547 192.402 571.509 192.61C571.471 192.819 571.207 196.78 570.375 196.78C569.544 196.78 568.411 196.655 568.411 196.655Z" fill="#1C056D"/>
</g>
</g>
<defs>
<clipPath id="clip0_204_818">
<rect width="795" height="585" fill="white"/>
</clipPath>
</defs>
</svg>
